;PTH Drill file created by EasyEDA 
M48
METRIC,LZ,000.000
;Holesize 1 = 0.712 METRIC
T01C0.712
;Holesize 2 = 0.813 METRIC
T02C0.813
;Holesize 3 = 0.915 METRIC
T03C0.915
;Holesize 4 = 1.000 METRIC
T04C1.000
;Holesize 5 = 1.016 METRIC
T05C1.016
;Holesize 6 = 1.270 METRIC
T06C1.270
%
G05
G90
T01
X020320Y006858
X020320Y011938
X020320Y014986
X020320Y020066
T02
X079756Y020574
X082296Y020574
X084836Y020574
X079756Y018034
X082296Y018034
X084836Y018034
X079756Y015494
X082296Y015494
X084836Y015494
X079756Y012954
X082296Y012954
X084836Y012954
X079756Y010414
X082296Y010414
X084836Y010414
X079756Y007874
X082296Y007874
X084836Y007874
T03
X030734Y013208
X028194Y013208
X025654Y013208
X063500Y003048
X068498Y003048
X052070Y018288
X052070Y015748
X060198Y018034
X070358Y018034
X064008Y015494
X074168Y015494
X067056Y012954
X077216Y012954
X067056Y010414
X077216Y010414
X067056Y007874
X077216Y007874
X066294Y003048
X076454Y003048
X020574Y022352
X022860Y022352
X033274Y022352
X035814Y022352
X020320Y004318
X022860Y004318
X025400Y004318
X033528Y004318
X036068Y004318
X038354Y019304
X038354Y016764
X038354Y014224
X038354Y011684
X038354Y009144
X038354Y006604
X028702Y009144
X036068Y009144
X040894Y005334
X045974Y018034
X033274Y018034
X071374Y003048
X045974Y023114
X040894Y019812
X028194Y018034
X028194Y015494
T04
X049784Y014732
X043784Y014732
X049784Y010731
X043784Y010731
X060198Y014732
X054198Y014732
X060198Y010731
X054198Y010731
T05
X065024Y007874
X062484Y007874
X045974Y005334
X048514Y005334
X051054Y005334
X053594Y005334
X056134Y005334
X058674Y005334
X061214Y005334
X063754Y005334
X066294Y005334
X068834Y005334
X071374Y005334
X073914Y005334
X073914Y020574
X071374Y020574
X068834Y020574
X066294Y020574
X063754Y020574
X061214Y020574
X058674Y020574
X056134Y020574
X053594Y020574
X051054Y020574
X048514Y020574
X045974Y020574
T06
X002540Y004064
X016764Y004064
X002540Y023114
X016764Y023114
M30
