G04 ---------------------------- Layer name :TOP LAYER*
G04 EasyEDA v5.7.26, Mon, 01 Oct 2018 13:32:53 GMT*
G04 edaa9a1a6b454e79be5b24898f8a718c*
G04 Gerber Generator version 0.2*
G04 Scale: 100 percent, Rotated: No, Reflected: No *
G04 Dimensions in millimeters *
G04 leading zeros omitted , absolute positions ,3 integer and 3 decimal *
%FSLAX33Y33*%
%MOMM*%
G90*
G71D02*

%ADD10C,0.499999*%
%ADD11C,0.799998*%
%ADD12C,0.999998*%
%ADD13C,1.499997*%
%ADD14C,1.880006*%
%ADD15C,1.524000*%
%ADD16C,1.778000*%
%ADD17C,1.879600*%
%ADD18R,2.540000X2.540000*%

%LPD*%
G54D11*
G01X79756Y7874D02*
G01X79756Y6096D01*
G01X76708Y3048D01*
G01X76454Y3048D01*
G01X79756Y10414D02*
G01X77216Y7874D01*
G01X79756Y12954D02*
G01X77216Y10414D01*
G01X79756Y15494D02*
G01X77216Y12954D01*
G54D12*
G01X79756Y20574D02*
G01X78486Y20574D01*
G01X75946Y18034D01*
G01X70358Y18034D01*
G54D13*
G01X84836Y20574D02*
G01X84836Y18034D01*
G01X84836Y18034D02*
G01X84836Y15494D01*
G01X84836Y15494D02*
G01X84836Y12954D01*
G01X84836Y12954D02*
G01X84836Y10414D01*
G01X84836Y7874D02*
G01X84836Y10414D01*
G54D10*
G01X63754Y5334D02*
G01X65532Y3556D01*
G01X66294Y3048D01*
G54D11*
G01X65024Y7874D02*
G01X67056Y7874D01*
G01X79756Y18034D02*
G01X77216Y15494D01*
G01X74168Y15494D01*
G01X62484Y7874D02*
G01X62357Y8001D01*
G01X64770Y10414D01*
G01X67056Y10414D01*
G54D10*
G01X67056Y12954D02*
G01X64262Y12954D01*
G01X62230Y10922D01*
G01X62230Y10160D01*
G01X60198Y8128D01*
G01X60198Y6858D01*
G01X61468Y5588D01*
G01X61214Y5334D01*
G01X64008Y15494D02*
G01X61214Y12700D01*
G01X59436Y12700D01*
G01X58420Y11684D01*
G01X58420Y5334D01*
G01X58674Y5334D01*
G01X60198Y18034D02*
G01X56642Y14478D01*
G01X56642Y5842D01*
G01X56134Y5334D01*
G01X60198Y14732D02*
G01X63754Y18288D01*
G01X63754Y20574D01*
G54D11*
G01X49784Y14732D02*
G01X48514Y16002D01*
G01X48514Y20574D01*
G01X52070Y18288D02*
G01X51054Y18288D01*
G01X51054Y20574D01*
G01X54198Y10731D02*
G01X49784Y10731D01*
G01X52070Y15748D02*
G01X52070Y10815D01*
G01X52011Y10731D01*
G54D10*
G01X38354Y11684D02*
G01X38862Y11684D01*
G01X40640Y9906D01*
G01X40640Y8890D01*
G01X43942Y5588D01*
G01X43942Y4318D01*
G01X44958Y3302D01*
G01X49784Y3302D01*
G01X51435Y4953D01*
G01X51054Y5334D01*
G01X38354Y14224D02*
G01X38862Y14224D01*
G01X42164Y10922D01*
G01X42164Y9652D01*
G01X43180Y8636D01*
G01X45720Y8636D01*
G01X48514Y5842D01*
G01X48514Y5334D01*
G01X38354Y16764D02*
G01X39116Y16764D01*
G01X43180Y12700D01*
G01X44704Y12700D01*
G01X49530Y7874D01*
G01X51562Y7874D01*
G01X53848Y5588D01*
G01X53594Y5334D01*
G01X16764Y4064D02*
G01X16764Y7874D01*
G01X18288Y9398D01*
G01X21844Y9398D01*
G01X25654Y13208D01*
G01X30734Y13208D02*
G01X30734Y7112D01*
G01X33528Y4318D01*
G01X20320Y6858D02*
G01X21844Y6858D01*
G01X22860Y5842D01*
G01X22860Y4318D01*
G01X20320Y11938D02*
G01X17018Y11938D01*
G01X13716Y8636D01*
G01X13716Y2286D01*
G01X14986Y1016D01*
G01X19558Y1016D01*
G01X20320Y1778D01*
G01X20320Y4318D01*
G01X20320Y11938D02*
G01X20320Y14986D01*
G01X20320Y20066D02*
G01X36322Y20066D01*
G01X38100Y21844D01*
G01X44704Y21844D01*
G01X45974Y20574D01*
G01X2540Y4064D02*
G01X5588Y4064D01*
G01X19558Y18034D01*
G01X28956Y18034D01*
G01X33020Y13970D01*
G01X33020Y7366D01*
G01X36068Y4318D01*
G01X38354Y6604D02*
G01X36068Y4318D01*
G01X22860Y4318D02*
G01X22860Y2540D01*
G01X23622Y1778D01*
G01X34798Y1778D01*
G01X36068Y3048D01*
G01X36068Y4318D01*
G01X36068Y9144D02*
G01X38354Y9144D01*
G01X63500Y3048D02*
G01X52324Y3048D01*
G01X51054Y1778D01*
G01X38608Y1778D01*
G01X36068Y4318D01*
G01X40894Y5334D02*
G01X40894Y6604D01*
G01X38354Y9144D01*
G01X45974Y18034D02*
G01X45974Y14541D01*
G01X49784Y10731D01*
G01X33274Y18034D02*
G01X31496Y16256D01*
G01X31496Y15494D01*
G01X28702Y9144D02*
G01X30734Y7112D01*
G01X68498Y3048D02*
G01X68834Y3048D01*
G01X66294Y5334D02*
G01X66294Y5252D01*
G01X68498Y3048D01*
G01X68498Y3048D02*
G01X71374Y3048D01*
G01X45974Y23114D02*
G01X57404Y23114D01*
G01X58674Y21844D01*
G01X58674Y20574D01*
G01X40894Y19812D02*
G01X38862Y19812D01*
G01X38354Y19304D01*
G01X28194Y15494D02*
G01X28194Y13208D01*
G01X63500Y3048D02*
G01X63500Y2540D01*
G01X64770Y1270D01*
G01X81280Y1270D01*
G01X84836Y4826D01*
G01X84836Y7874D01*
G01X71374Y5334D02*
G01X73406Y3302D01*
G01X73406Y1270D01*
G01X73329Y1270D01*
G54D14*
G01X65024Y7874D03*
G01X62484Y7874D03*
G54D15*
G01X30734Y13208D03*
G01X28194Y13208D03*
G01X25654Y13208D03*
G54D16*
G01X20320Y6858D03*
G01X20320Y11938D03*
G01X20320Y14986D03*
G01X20320Y20066D03*
G54D15*
G01X63500Y3048D03*
G01X68498Y3048D03*
G01X52070Y18288D03*
G01X52070Y15748D03*
G01X49784Y14732D03*
G01X43784Y14732D03*
G01X49784Y10731D03*
G01X43784Y10731D03*
G01X60198Y14732D03*
G01X54198Y14732D03*
G01X60198Y10731D03*
G01X54198Y10731D03*
G54D17*
G01X45974Y5334D03*
G01X48514Y5334D03*
G01X51054Y5334D03*
G01X53594Y5334D03*
G01X56134Y5334D03*
G01X58674Y5334D03*
G01X61214Y5334D03*
G01X63754Y5334D03*
G01X66294Y5334D03*
G01X68834Y5334D03*
G01X71374Y5334D03*
G01X73914Y5334D03*
G01X73914Y20574D03*
G01X71374Y20574D03*
G01X68834Y20574D03*
G01X66294Y20574D03*
G01X63754Y20574D03*
G01X61214Y20574D03*
G01X58674Y20574D03*
G01X56134Y20574D03*
G01X53594Y20574D03*
G01X51054Y20574D03*
G01X48514Y20574D03*
G01X45974Y20574D03*
G54D15*
G01X60198Y18034D03*
G01X70358Y18034D03*
G01X64008Y15494D03*
G01X74168Y15494D03*
G01X67056Y12954D03*
G01X77216Y12954D03*
G01X67056Y10414D03*
G01X77216Y10414D03*
G01X67056Y7874D03*
G01X77216Y7874D03*
G01X66294Y3048D03*
G01X76454Y3048D03*
G54D17*
G01X79756Y20574D03*
G01X82296Y20574D03*
G01X84836Y20574D03*
G01X79756Y18034D03*
G01X82296Y18034D03*
G01X84836Y18034D03*
G01X79756Y15494D03*
G01X82296Y15494D03*
G01X84836Y15494D03*
G01X79756Y12954D03*
G01X82296Y12954D03*
G01X84836Y12954D03*
G01X79756Y10414D03*
G01X82296Y10414D03*
G01X84836Y10414D03*
G01X79756Y7874D03*
G01X82296Y7874D03*
G01X84836Y7874D03*
G54D15*
G01X20574Y22352D03*
G01X22860Y22352D03*
G01X33274Y22352D03*
G01X35814Y22352D03*
G01X20320Y4318D03*
G01X22860Y4318D03*
G01X25400Y4318D03*
G01X33528Y4318D03*
G01X36068Y4318D03*
G54D18*
G01X2540Y4064D03*
G01X16764Y4064D03*
G01X2540Y23114D03*
G01X16764Y23114D03*
G54D15*
G01X38354Y19304D03*
G01X38354Y16764D03*
G01X38354Y14224D03*
G01X38354Y11684D03*
G01X38354Y9144D03*
G01X38354Y6604D03*
G01X28702Y9144D03*
G01X36068Y9144D03*
G01X40894Y5334D03*
G01X45974Y18034D03*
G01X33274Y18034D03*
G01X71374Y3048D03*
G01X45974Y23114D03*
G01X40894Y19812D03*
G01X28194Y18034D03*
G01X28194Y15494D03*
M00*
M02*
