G04 ---------------------------- Layer name :TOP SOLDER LAYER*
G04 EasyEDA v5.7.26, Thu, 04 Oct 2018 07:00:36 GMT*
G04 bab801e3e9994df8b30bbc7ea68d8503*
G04 Gerber Generator version 0.2*
G04 Scale: 100 percent, Rotated: No, Reflected: No *
G04 Dimensions in millimeters *
G04 leading zeros omitted , absolute positions ,3 integer and 3 decimal *
%FSLAX33Y33*%
%MOMM*%
G90*
G71D02*

%ADD14C,2.003196*%
%ADD19C,2.203196*%
%ADD20C,2.083206*%
%ADD21C,1.981200*%
%ADD22C,2.082800*%
%ADD23R,2.743200X2.743200*%
%ADD24C,4.203192*%

%LPD*%
G54D20*
G01X65024Y7874D03*
G01X62484Y7874D03*
G54D19*
G01X30734Y13208D03*
G01X28194Y13208D03*
G01X25654Y13208D03*
G54D21*
G01X20320Y6858D03*
G01X20320Y11938D03*
G01X20320Y14986D03*
G01X20320Y20066D03*
G54D14*
G01X61214Y3048D03*
G01X66212Y3048D03*
G01X52070Y18288D03*
G01X52070Y15748D03*
G01X49784Y14732D03*
G01X43784Y14732D03*
G01X49784Y10731D03*
G01X43784Y10731D03*
G01X60198Y14732D03*
G01X54198Y14732D03*
G01X60198Y10731D03*
G01X54198Y10731D03*
G54D22*
G01X45974Y5334D03*
G01X48514Y5334D03*
G01X51054Y5334D03*
G01X53594Y5334D03*
G01X56134Y5334D03*
G01X58674Y5334D03*
G01X61214Y5334D03*
G01X63754Y5334D03*
G01X66294Y5334D03*
G01X68834Y5334D03*
G01X71374Y5334D03*
G01X73914Y5334D03*
G01X73914Y20574D03*
G01X71374Y20574D03*
G01X68834Y20574D03*
G01X66294Y20574D03*
G01X63754Y20574D03*
G01X61214Y20574D03*
G01X58674Y20574D03*
G01X56134Y20574D03*
G01X53594Y20574D03*
G01X51054Y20574D03*
G01X48514Y20574D03*
G01X45974Y20574D03*
G54D14*
G01X60198Y18034D03*
G01X70358Y18034D03*
G01X64008Y15494D03*
G01X74168Y15494D03*
G01X66040Y12954D03*
G01X76200Y12954D03*
G01X66040Y10414D03*
G01X76200Y10414D03*
G01X67056Y7874D03*
G01X77216Y7874D03*
G01X63754Y3048D03*
G01X73914Y3048D03*
G54D22*
G01X79756Y20574D03*
G01X82296Y20574D03*
G01X84836Y20574D03*
G01X79756Y18034D03*
G01X82296Y18034D03*
G01X84836Y18034D03*
G01X79756Y15494D03*
G01X82296Y15494D03*
G01X84836Y15494D03*
G01X79756Y12954D03*
G01X82296Y12954D03*
G01X84836Y12954D03*
G01X79756Y10414D03*
G01X82296Y10414D03*
G01X84836Y10414D03*
G01X79756Y7874D03*
G01X82296Y7874D03*
G01X84836Y7874D03*
G54D14*
G01X20574Y22352D03*
G01X22860Y22352D03*
G01X33274Y22352D03*
G01X35814Y22352D03*
G01X20320Y4318D03*
G01X22860Y4318D03*
G01X25400Y4318D03*
G01X33528Y4318D03*
G01X36068Y4318D03*
G54D23*
G01X2540Y4064D03*
G01X16764Y4064D03*
G01X2540Y23114D03*
G01X16764Y23114D03*
G54D14*
G01X38354Y19304D03*
G01X38354Y16764D03*
G01X38354Y14224D03*
G01X38354Y11684D03*
G01X38354Y9144D03*
G01X38354Y6604D03*
G01X28702Y9144D03*
G01X36068Y9144D03*
G01X40894Y5334D03*
G01X45974Y18034D03*
G01X33274Y18034D03*
G01X68834Y3048D03*
G01X47244Y23114D03*
G01X40894Y19812D03*
G01X28194Y18034D03*
G01X28194Y15494D03*
G54D24*
G01X3810Y12700D03*
M00*
M02*
