G04 ---------------------------- Layer name :TOP SILK LAYER*
G04 EasyEDA v5.7.26, Thu, 04 Oct 2018 07:00:36 GMT*
G04 bab801e3e9994df8b30bbc7ea68d8503*
G04 Gerber Generator version 0.2*
G04 Scale: 100 percent, Rotated: No, Reflected: No *
G04 Dimensions in millimeters *
G04 leading zeros omitted , absolute positions ,3 integer and 3 decimal *
%FSLAX33Y33*%
%MOMM*%
G90*
G71D02*

%ADD25C,0.254000*%
%ADD26C,0.177800*%
%ADD27C,0.127000*%
%ADD28C,0.203200*%

%LPD*%
G54D25*
G01X32766Y11430D02*
G01X32766Y14732D01*
G01X23876Y14732D01*
G01X23876Y11176D01*
G01X32512Y11176D01*
G01X32766Y11430D01*
G54D26*
G01X20320Y13462D02*
G01X22860Y13462D01*
G01X22860Y5334D01*
G01X17780Y5334D01*
G01X17780Y13462D01*
G01X20320Y13462D01*
G01X20320Y21590D02*
G01X22860Y21590D01*
G01X22860Y13462D01*
G01X17780Y13462D01*
G01X17780Y21590D01*
G01X20320Y21590D01*
G54D25*
G01X60963Y4547D02*
G01X66463Y4547D01*
G01X66473Y4547D02*
G01X66473Y1547D01*
G01X66463Y1547D02*
G01X60963Y1547D01*
G01X60963Y1547D02*
G01X60963Y4547D01*
G01X53594Y18542D02*
G01X53594Y17526D01*
G01X54102Y18034D02*
G01X53086Y18034D01*
G01X43784Y9732D02*
G01X43784Y15731D01*
G01X49784Y15731D01*
G01X49784Y9732D01*
G01X43784Y9732D01*
G01X54198Y9732D02*
G01X54198Y15731D01*
G01X60198Y15731D01*
G01X60198Y9732D01*
G01X54198Y9732D01*
G01X61976Y18796D02*
G01X68580Y18796D01*
G01X68580Y17272D01*
G01X61976Y17272D01*
G01X61976Y18796D01*
G01X62230Y18796D01*
G01X65786Y16256D02*
G01X72390Y16256D01*
G01X72390Y14732D01*
G01X65786Y14732D01*
G01X65786Y16256D01*
G01X66040Y16256D01*
G01X67818Y13716D02*
G01X74422Y13716D01*
G01X74422Y12192D01*
G01X67818Y12192D01*
G01X67818Y13716D01*
G01X68072Y13716D01*
G01X67818Y11176D02*
G01X74422Y11176D01*
G01X74422Y9652D01*
G01X67818Y9652D01*
G01X67818Y11176D01*
G01X68072Y11176D01*
G01X68834Y8636D02*
G01X75438Y8636D01*
G01X75438Y7112D01*
G01X68834Y7112D01*
G01X68834Y8636D01*
G01X69088Y8636D01*
G01X65532Y3810D02*
G01X72136Y3810D01*
G01X72136Y2286D01*
G01X65532Y2286D01*
G01X65532Y3810D01*
G01X65786Y3810D01*
G01X84378Y22225D02*
G01X80213Y22225D01*
G01X84378Y19685D02*
G01X80213Y19685D01*
G01X84378Y17145D02*
G01X80213Y17145D01*
G01X84378Y14605D02*
G01X80213Y14605D01*
G01X84378Y12065D02*
G01X80213Y12065D01*
G01X84378Y9525D02*
G01X80213Y9525D01*
G01X22606Y6858D02*
G01X22606Y5588D01*
G01X22098Y5588D02*
G01X23114Y5588D01*
G01X19050Y23622D02*
G01X36830Y23622D01*
G01X36830Y3302D01*
G01X19050Y3302D01*
G01X19050Y23622D01*
G01X19304Y23622D01*
G01X18288Y2540D02*
G01X18288Y24638D01*
G01X1016Y24638D01*
G01X1016Y2540D01*
G01X18288Y2540D01*
G01X6273Y1803D02*
G01X6680Y1803D01*
G01X12674Y1803D02*
G01X13081Y1803D01*
G01X6273Y1803D02*
G01X6273Y2514D01*
G01X6273Y2514D02*
G01X6273Y6807D01*
G01X13081Y6807D02*
G01X13081Y2514D01*
G01X13081Y2514D02*
G01X13081Y1803D01*
G01X6273Y1803D02*
G01X5689Y1219D01*
G01X13081Y1803D02*
G01X13665Y1219D01*
G01X6680Y1803D02*
G01X6680Y1422D01*
G01X6908Y1143D02*
G01X12446Y1143D01*
G01X12674Y1371D02*
G01X12674Y1803D01*
G01X6273Y5207D02*
G01X6273Y6807D01*
G01X6273Y6807D02*
G01X7467Y6807D01*
G01X13081Y6807D02*
G01X11887Y6807D01*
G01X13081Y5207D02*
G01X13081Y6807D01*
G01X6273Y2514D02*
G01X13081Y2514D01*
G01X7467Y6807D02*
G01X7467Y5410D01*
G01X7467Y5410D02*
G01X11887Y5410D01*
G01X11887Y5410D02*
G01X11887Y6807D01*
G54D26*
G01X55740Y8727D02*
G01X55740Y8000D01*
G01X55740Y8572D02*
G01X55638Y8676D01*
G01X55534Y8727D01*
G01X55377Y8727D01*
G01X55272Y8676D01*
G01X55168Y8572D01*
G01X55118Y8417D01*
G01X55118Y8313D01*
G01X55168Y8155D01*
G01X55272Y8051D01*
G01X55377Y8000D01*
G01X55534Y8000D01*
G01X55638Y8051D01*
G01X55740Y8155D01*
G01X56083Y8727D02*
G01X56083Y8000D01*
G01X56083Y8417D02*
G01X56136Y8572D01*
G01X56240Y8676D01*
G01X56344Y8727D01*
G01X56499Y8727D01*
G01X57467Y9093D02*
G01X57467Y8000D01*
G01X57467Y8572D02*
G01X57363Y8676D01*
G01X57259Y8727D01*
G01X57101Y8727D01*
G01X56997Y8676D01*
G01X56896Y8572D01*
G01X56842Y8417D01*
G01X56842Y8313D01*
G01X56896Y8155D01*
G01X56997Y8051D01*
G01X57101Y8000D01*
G01X57259Y8000D01*
G01X57363Y8051D01*
G01X57467Y8155D01*
G01X57810Y8727D02*
G01X57810Y8209D01*
G01X57861Y8051D01*
G01X57965Y8000D01*
G01X58120Y8000D01*
G01X58224Y8051D01*
G01X58381Y8209D01*
G01X58381Y8727D02*
G01X58381Y8000D01*
G01X58724Y9093D02*
G01X58775Y9039D01*
G01X58826Y9093D01*
G01X58775Y9143D01*
G01X58724Y9093D01*
G01X58775Y8727D02*
G01X58775Y8000D01*
G01X59169Y8727D02*
G01X59169Y8000D01*
G01X59169Y8521D02*
G01X59326Y8676D01*
G01X59430Y8727D01*
G01X59585Y8727D01*
G01X59690Y8676D01*
G01X59740Y8521D01*
G01X59740Y8000D01*
G01X60345Y8727D02*
G01X60241Y8676D01*
G01X60137Y8572D01*
G01X60083Y8417D01*
G01X60083Y8313D01*
G01X60137Y8155D01*
G01X60241Y8051D01*
G01X60345Y8000D01*
G01X60500Y8000D01*
G01X60604Y8051D01*
G01X60708Y8155D01*
G01X60759Y8313D01*
G01X60759Y8417D01*
G01X60708Y8572D01*
G01X60604Y8676D01*
G01X60500Y8727D01*
G01X60345Y8727D01*
G01X29174Y10373D02*
G01X29070Y10477D01*
G01X28915Y10528D01*
G01X28707Y10528D01*
G01X28552Y10477D01*
G01X28448Y10373D01*
G01X28448Y10269D01*
G01X28498Y10165D01*
G01X28552Y10114D01*
G01X28656Y10060D01*
G01X28968Y9956D01*
G01X29070Y9906D01*
G01X29123Y9855D01*
G01X29174Y9751D01*
G01X29174Y9593D01*
G01X29070Y9489D01*
G01X28915Y9438D01*
G01X28707Y9438D01*
G01X28552Y9489D01*
G01X28448Y9593D01*
G01X29517Y10528D02*
G01X29778Y9438D01*
G01X30038Y10528D02*
G01X29778Y9438D01*
G01X30038Y10528D02*
G01X30297Y9438D01*
G01X30556Y10528D02*
G01X30297Y9438D01*
G01X30899Y10322D02*
G01X31003Y10373D01*
G01X31160Y10528D01*
G01X31160Y9438D01*
G01X20972Y14968D02*
G01X20919Y15072D01*
G01X20815Y15176D01*
G01X20713Y15227D01*
G01X20505Y15227D01*
G01X20401Y15176D01*
G01X20297Y15072D01*
G01X20243Y14968D01*
G01X20193Y14813D01*
G01X20193Y14554D01*
G01X20243Y14396D01*
G01X20297Y14292D01*
G01X20401Y14188D01*
G01X20505Y14137D01*
G01X20713Y14137D01*
G01X20815Y14188D01*
G01X20919Y14292D01*
G01X20972Y14396D01*
G01X21419Y15227D02*
G01X21991Y15227D01*
G01X21678Y14813D01*
G01X21833Y14813D01*
G01X21937Y14759D01*
G01X21991Y14709D01*
G01X22042Y14554D01*
G01X22042Y14450D01*
G01X21991Y14292D01*
G01X21887Y14188D01*
G01X21729Y14137D01*
G01X21574Y14137D01*
G01X21419Y14188D01*
G01X21366Y14241D01*
G01X21315Y14345D01*
G01X20972Y23096D02*
G01X20919Y23200D01*
G01X20815Y23304D01*
G01X20713Y23355D01*
G01X20505Y23355D01*
G01X20401Y23304D01*
G01X20297Y23200D01*
G01X20243Y23096D01*
G01X20193Y22941D01*
G01X20193Y22682D01*
G01X20243Y22524D01*
G01X20297Y22420D01*
G01X20401Y22316D01*
G01X20505Y22265D01*
G01X20713Y22265D01*
G01X20815Y22316D01*
G01X20919Y22420D01*
G01X20972Y22524D01*
G01X21833Y23355D02*
G01X21315Y22628D01*
G01X22095Y22628D01*
G01X21833Y23355D02*
G01X21833Y22265D01*
G01X64279Y6205D02*
G01X64226Y6309D01*
G01X64122Y6413D01*
G01X64020Y6464D01*
G01X63812Y6464D01*
G01X63708Y6413D01*
G01X63604Y6309D01*
G01X63550Y6205D01*
G01X63500Y6050D01*
G01X63500Y5791D01*
G01X63550Y5633D01*
G01X63604Y5529D01*
G01X63708Y5425D01*
G01X63812Y5374D01*
G01X64020Y5374D01*
G01X64122Y5425D01*
G01X64226Y5529D01*
G01X64279Y5633D01*
G01X65244Y6464D02*
G01X64726Y6464D01*
G01X64673Y5996D01*
G01X64726Y6050D01*
G01X64881Y6101D01*
G01X65036Y6101D01*
G01X65194Y6050D01*
G01X65298Y5946D01*
G01X65349Y5791D01*
G01X65349Y5687D01*
G01X65298Y5529D01*
G01X65194Y5425D01*
G01X65036Y5374D01*
G01X64881Y5374D01*
G01X64726Y5425D01*
G01X64673Y5478D01*
G01X64622Y5582D01*
G01X42464Y12274D02*
G01X42360Y12170D01*
G01X42310Y12015D01*
G01X42310Y11807D01*
G01X42360Y11652D01*
G01X42464Y11548D01*
G01X42569Y11548D01*
G01X42673Y11598D01*
G01X42724Y11652D01*
G01X42777Y11756D01*
G01X42881Y12068D01*
G01X42932Y12170D01*
G01X42983Y12223D01*
G01X43087Y12274D01*
G01X43244Y12274D01*
G01X43348Y12170D01*
G01X43399Y12015D01*
G01X43399Y11807D01*
G01X43348Y11652D01*
G01X43244Y11548D01*
G01X42310Y12617D02*
G01X43399Y12879D01*
G01X42310Y13138D02*
G01X43399Y12879D01*
G01X42310Y13138D02*
G01X43399Y13397D01*
G01X42310Y13656D02*
G01X43399Y13397D01*
G01X42515Y13999D02*
G01X42464Y14103D01*
G01X42310Y14260D01*
G01X43399Y14260D01*
G01X51445Y13553D02*
G01X51341Y13449D01*
G01X51290Y13294D01*
G01X51290Y13086D01*
G01X51341Y12931D01*
G01X51445Y12827D01*
G01X51549Y12827D01*
G01X51653Y12877D01*
G01X51704Y12931D01*
G01X51757Y13035D01*
G01X51861Y13347D01*
G01X51912Y13449D01*
G01X51963Y13502D01*
G01X52067Y13553D01*
G01X52224Y13553D01*
G01X52329Y13449D01*
G01X52379Y13294D01*
G01X52379Y13086D01*
G01X52329Y12931D01*
G01X52224Y12827D01*
G01X51290Y13896D02*
G01X52379Y14157D01*
G01X51290Y14417D02*
G01X52379Y14157D01*
G01X51290Y14417D02*
G01X52379Y14676D01*
G01X51290Y14935D02*
G01X52379Y14676D01*
G01X51290Y15382D02*
G01X51290Y15953D01*
G01X51704Y15643D01*
G01X51704Y15798D01*
G01X51757Y15902D01*
G01X51808Y15953D01*
G01X51963Y16007D01*
G01X52067Y16007D01*
G01X52224Y15953D01*
G01X52329Y15849D01*
G01X52379Y15694D01*
G01X52379Y15539D01*
G01X52329Y15382D01*
G01X52275Y15331D01*
G01X52171Y15278D01*
G01X46328Y32452D02*
G01X47105Y32452D01*
G01X47263Y32503D01*
G01X47367Y32607D01*
G01X47417Y32764D01*
G01X47417Y32868D01*
G01X47367Y33023D01*
G01X47263Y33127D01*
G01X47105Y33178D01*
G01X46328Y33178D01*
G01X46328Y33625D02*
G01X46328Y34197D01*
G01X46742Y33887D01*
G01X46742Y34042D01*
G01X46795Y34146D01*
G01X46846Y34197D01*
G01X47001Y34250D01*
G01X47105Y34250D01*
G01X47263Y34197D01*
G01X47367Y34093D01*
G01X47417Y33938D01*
G01X47417Y33783D01*
G01X47367Y33625D01*
G01X47313Y33574D01*
G01X47209Y33521D01*
G01X65278Y20688D02*
G01X65278Y19911D01*
G01X65328Y19753D01*
G01X65432Y19649D01*
G01X65590Y19598D01*
G01X65694Y19598D01*
G01X65849Y19649D01*
G01X65953Y19753D01*
G01X66004Y19911D01*
G01X66004Y20688D01*
G01X66868Y20688D02*
G01X66347Y19961D01*
G01X67127Y19961D01*
G01X66868Y20688D02*
G01X66868Y19598D01*
G01X69088Y18148D02*
G01X69088Y17371D01*
G01X69138Y17213D01*
G01X69242Y17109D01*
G01X69400Y17058D01*
G01X69504Y17058D01*
G01X69659Y17109D01*
G01X69763Y17213D01*
G01X69814Y17371D01*
G01X69814Y18148D01*
G01X70782Y18148D02*
G01X70261Y18148D01*
G01X70210Y17680D01*
G01X70261Y17734D01*
G01X70418Y17785D01*
G01X70573Y17785D01*
G01X70728Y17734D01*
G01X70832Y17630D01*
G01X70886Y17475D01*
G01X70886Y17371D01*
G01X70832Y17213D01*
G01X70728Y17109D01*
G01X70573Y17058D01*
G01X70418Y17058D01*
G01X70261Y17109D01*
G01X70210Y17162D01*
G01X70157Y17266D01*
G01X71120Y15608D02*
G01X71120Y14831D01*
G01X71170Y14673D01*
G01X71274Y14569D01*
G01X71432Y14518D01*
G01X71536Y14518D01*
G01X71691Y14569D01*
G01X71795Y14673D01*
G01X71846Y14831D01*
G01X71846Y15608D01*
G01X72814Y15453D02*
G01X72760Y15557D01*
G01X72605Y15608D01*
G01X72501Y15608D01*
G01X72346Y15557D01*
G01X72242Y15402D01*
G01X72189Y15140D01*
G01X72189Y14881D01*
G01X72242Y14673D01*
G01X72346Y14569D01*
G01X72501Y14518D01*
G01X72555Y14518D01*
G01X72710Y14569D01*
G01X72814Y14673D01*
G01X72864Y14831D01*
G01X72864Y14881D01*
G01X72814Y15036D01*
G01X72710Y15140D01*
G01X72555Y15194D01*
G01X72501Y15194D01*
G01X72346Y15140D01*
G01X72242Y15036D01*
G01X72189Y14881D01*
G01X71120Y13068D02*
G01X71120Y12291D01*
G01X71170Y12133D01*
G01X71274Y12029D01*
G01X71432Y11978D01*
G01X71536Y11978D01*
G01X71691Y12029D01*
G01X71795Y12133D01*
G01X71846Y12291D01*
G01X71846Y13068D01*
G01X72918Y13068D02*
G01X72397Y11978D01*
G01X72189Y13068D02*
G01X72918Y13068D01*
G01X72136Y10528D02*
G01X72136Y9751D01*
G01X72186Y9593D01*
G01X72290Y9489D01*
G01X72448Y9438D01*
G01X72552Y9438D01*
G01X72707Y9489D01*
G01X72811Y9593D01*
G01X72862Y9751D01*
G01X72862Y10528D01*
G01X73466Y10528D02*
G01X73309Y10477D01*
G01X73258Y10373D01*
G01X73258Y10269D01*
G01X73309Y10165D01*
G01X73413Y10114D01*
G01X73621Y10060D01*
G01X73776Y10010D01*
G01X73880Y9906D01*
G01X73934Y9801D01*
G01X73934Y9646D01*
G01X73880Y9542D01*
G01X73830Y9489D01*
G01X73672Y9438D01*
G01X73466Y9438D01*
G01X73309Y9489D01*
G01X73258Y9542D01*
G01X73205Y9646D01*
G01X73205Y9801D01*
G01X73258Y9906D01*
G01X73362Y10010D01*
G01X73517Y10060D01*
G01X73726Y10114D01*
G01X73830Y10165D01*
G01X73880Y10269D01*
G01X73880Y10373D01*
G01X73830Y10477D01*
G01X73672Y10528D01*
G01X73466Y10528D01*
G01X68834Y5702D02*
G01X68834Y4925D01*
G01X68884Y4767D01*
G01X68988Y4663D01*
G01X69146Y4612D01*
G01X69250Y4612D01*
G01X69405Y4663D01*
G01X69509Y4767D01*
G01X69560Y4925D01*
G01X69560Y5702D01*
G01X70578Y5339D02*
G01X70528Y5184D01*
G01X70424Y5080D01*
G01X70269Y5029D01*
G01X70215Y5029D01*
G01X70060Y5080D01*
G01X69956Y5184D01*
G01X69903Y5339D01*
G01X69903Y5392D01*
G01X69956Y5547D01*
G01X70060Y5651D01*
G01X70215Y5702D01*
G01X70269Y5702D01*
G01X70424Y5651D01*
G01X70528Y5547D01*
G01X70578Y5339D01*
G01X70578Y5080D01*
G01X70528Y4820D01*
G01X70424Y4663D01*
G01X70269Y4612D01*
G01X70164Y4612D01*
G01X70007Y4663D01*
G01X69956Y4767D01*
G01X90030Y16042D02*
G01X90030Y16819D01*
G01X89979Y16977D01*
G01X89875Y17081D01*
G01X89717Y17132D01*
G01X89613Y17132D01*
G01X89458Y17081D01*
G01X89354Y16977D01*
G01X89303Y16819D01*
G01X89303Y16042D01*
G01X88960Y16248D02*
G01X88856Y16197D01*
G01X88699Y16042D01*
G01X88699Y17132D01*
G01X88046Y16042D02*
G01X88201Y16093D01*
G01X88305Y16248D01*
G01X88356Y16510D01*
G01X88356Y16664D01*
G01X88305Y16924D01*
G01X88201Y17081D01*
G01X88046Y17132D01*
G01X87942Y17132D01*
G01X87784Y17081D01*
G01X87680Y16924D01*
G01X87630Y16664D01*
G01X87630Y16510D01*
G01X87680Y16248D01*
G01X87784Y16093D01*
G01X87942Y16042D01*
G01X88046Y16042D01*
G01X89562Y13502D02*
G01X89562Y14279D01*
G01X89512Y14437D01*
G01X89408Y14541D01*
G01X89250Y14592D01*
G01X89146Y14592D01*
G01X88991Y14541D01*
G01X88887Y14437D01*
G01X88836Y14279D01*
G01X88836Y13502D01*
G01X88493Y13708D02*
G01X88389Y13657D01*
G01X88231Y13502D01*
G01X88231Y14592D01*
G01X87889Y13708D02*
G01X87784Y13657D01*
G01X87630Y13502D01*
G01X87630Y14592D01*
G01X90030Y10962D02*
G01X90030Y11739D01*
G01X89979Y11897D01*
G01X89875Y12001D01*
G01X89717Y12052D01*
G01X89613Y12052D01*
G01X89458Y12001D01*
G01X89354Y11897D01*
G01X89303Y11739D01*
G01X89303Y10962D01*
G01X88960Y11168D02*
G01X88856Y11117D01*
G01X88699Y10962D01*
G01X88699Y12052D01*
G01X88305Y11221D02*
G01X88305Y11168D01*
G01X88252Y11064D01*
G01X88201Y11013D01*
G01X88097Y10962D01*
G01X87889Y10962D01*
G01X87784Y11013D01*
G01X87734Y11064D01*
G01X87680Y11168D01*
G01X87680Y11272D01*
G01X87734Y11376D01*
G01X87838Y11534D01*
G01X88356Y12052D01*
G01X87630Y12052D01*
G01X90030Y8422D02*
G01X90030Y9199D01*
G01X89979Y9357D01*
G01X89875Y9461D01*
G01X89717Y9512D01*
G01X89613Y9512D01*
G01X89458Y9461D01*
G01X89354Y9357D01*
G01X89303Y9199D01*
G01X89303Y8422D01*
G01X88960Y8628D02*
G01X88856Y8577D01*
G01X88699Y8422D01*
G01X88699Y9512D01*
G01X88252Y8422D02*
G01X87680Y8422D01*
G01X87993Y8836D01*
G01X87838Y8836D01*
G01X87734Y8890D01*
G01X87680Y8940D01*
G01X87630Y9095D01*
G01X87630Y9199D01*
G01X87680Y9357D01*
G01X87784Y9461D01*
G01X87942Y9512D01*
G01X88097Y9512D01*
G01X88252Y9461D01*
G01X88305Y9408D01*
G01X88356Y9304D01*
G01X90081Y5882D02*
G01X90081Y6659D01*
G01X90030Y6817D01*
G01X89926Y6921D01*
G01X89768Y6972D01*
G01X89664Y6972D01*
G01X89509Y6921D01*
G01X89405Y6817D01*
G01X89354Y6659D01*
G01X89354Y5882D01*
G01X89011Y6088D02*
G01X88907Y6037D01*
G01X88750Y5882D01*
G01X88750Y6972D01*
G01X87889Y5882D02*
G01X88407Y6609D01*
G01X87630Y6609D01*
G01X87889Y5882D02*
G01X87889Y6972D01*
G01X90030Y3342D02*
G01X90030Y4119D01*
G01X89979Y4277D01*
G01X89875Y4381D01*
G01X89717Y4432D01*
G01X89613Y4432D01*
G01X89458Y4381D01*
G01X89354Y4277D01*
G01X89303Y4119D01*
G01X89303Y3342D01*
G01X88960Y3548D02*
G01X88856Y3497D01*
G01X88699Y3342D01*
G01X88699Y4432D01*
G01X87734Y3342D02*
G01X88252Y3342D01*
G01X88305Y3810D01*
G01X88252Y3756D01*
G01X88097Y3705D01*
G01X87942Y3705D01*
G01X87784Y3756D01*
G01X87680Y3860D01*
G01X87630Y4015D01*
G01X87630Y4119D01*
G01X87680Y4277D01*
G01X87784Y4381D01*
G01X87942Y4432D01*
G01X88097Y4432D01*
G01X88252Y4381D01*
G01X88305Y4328D01*
G01X88356Y4224D01*
G01X27940Y25514D02*
G01X27940Y24737D01*
G01X27990Y24579D01*
G01X28094Y24475D01*
G01X28252Y24424D01*
G01X28356Y24424D01*
G01X28511Y24475D01*
G01X28615Y24579D01*
G01X28666Y24737D01*
G01X28666Y25514D01*
G01X29009Y25308D02*
G01X29113Y25359D01*
G01X29270Y25514D01*
G01X29270Y24424D01*
G01X30236Y25359D02*
G01X30185Y25463D01*
G01X30027Y25514D01*
G01X29923Y25514D01*
G01X29768Y25463D01*
G01X29664Y25308D01*
G01X29613Y25046D01*
G01X29613Y24787D01*
G01X29664Y24579D01*
G01X29768Y24475D01*
G01X29923Y24424D01*
G01X29977Y24424D01*
G01X30132Y24475D01*
G01X30236Y24579D01*
G01X30289Y24737D01*
G01X30289Y24787D01*
G01X30236Y24942D01*
G01X30132Y25046D01*
G01X29977Y25100D01*
G01X29923Y25100D01*
G01X29768Y25046D01*
G01X29664Y24942D01*
G01X29613Y24787D01*
G54D28*
G01X26756Y18714D02*
G01X26642Y18658D01*
G01X26530Y18544D01*
G01X26471Y18432D01*
G01X26416Y18260D01*
G01X26416Y17978D01*
G01X26471Y17807D01*
G01X26530Y17693D01*
G01X26642Y17579D01*
G01X26756Y17523D01*
G01X26984Y17523D01*
G01X27096Y17579D01*
G01X27211Y17693D01*
G01X27269Y17807D01*
G01X27325Y17978D01*
G01X27325Y18260D01*
G01X27269Y18432D01*
G01X27211Y18544D01*
G01X27096Y18658D01*
G01X26984Y18714D01*
G01X26756Y18714D01*
G01X27701Y18714D02*
G01X27701Y17863D01*
G01X27757Y17693D01*
G01X27871Y17579D01*
G01X28041Y17523D01*
G01X28155Y17523D01*
G01X28326Y17579D01*
G01X28437Y17693D01*
G01X28496Y17863D01*
G01X28496Y18714D01*
G01X29268Y18714D02*
G01X29268Y17523D01*
G01X28869Y18714D02*
G01X29667Y18714D01*
G01X19812Y20825D02*
G01X20835Y20825D01*
G01X22595Y21335D02*
G01X22595Y20314D01*
G01X22085Y20825D02*
G01X23106Y20825D01*
G01X34208Y9398D02*
G01X33642Y9398D01*
G01X33583Y8887D01*
G01X33642Y8943D01*
G01X33812Y9001D01*
G01X33982Y9001D01*
G01X34152Y8943D01*
G01X34267Y8831D01*
G01X34323Y8661D01*
G01X34323Y8547D01*
G01X34267Y8377D01*
G01X34152Y8262D01*
G01X33982Y8206D01*
G01X33812Y8206D01*
G01X33642Y8262D01*
G01X33583Y8318D01*
G01X33528Y8432D01*
G01X34698Y9398D02*
G01X35153Y8206D01*
G01X35608Y9398D02*
G01X35153Y8206D01*
G01X33276Y21338D02*
G01X33276Y20317D01*
G01X32766Y20828D02*
G01X33789Y20828D01*
G01X35039Y20828D02*
G01X36060Y20828D01*
G01X33530Y6860D02*
G01X33530Y5839D01*
G01X33020Y6350D02*
G01X34043Y6350D01*
G01X20066Y6858D02*
G01X20066Y5666D01*
G01X20066Y5666D02*
G01X20746Y5666D01*
G01X25146Y6858D02*
G01X25146Y5666D01*
G01X25146Y6858D02*
G01X25656Y6858D01*
G01X25826Y6802D01*
G01X25885Y6746D01*
G01X25941Y6631D01*
G01X25941Y6517D01*
G01X25885Y6405D01*
G01X25826Y6347D01*
G01X25656Y6291D01*
G01X25146Y6291D01*
G01X25544Y6291D02*
G01X25941Y5666D01*
G01X35306Y6350D02*
G01X36329Y6350D01*
G01X34036Y18714D02*
G01X34036Y17523D01*
G01X34036Y18714D02*
G01X34546Y18714D01*
G01X34716Y18658D01*
G01X34775Y18602D01*
G01X34831Y18488D01*
G01X34831Y18374D01*
G01X34775Y18260D01*
G01X34716Y18204D01*
G01X34546Y18148D01*
G01X34036Y18148D01*
G01X34434Y18148D02*
G01X34831Y17523D01*
G01X21336Y18714D02*
G01X21336Y17523D01*
G01X21336Y17523D02*
G01X22016Y17523D01*
G54D26*
G01X9652Y26530D02*
G01X9652Y25753D01*
G01X9702Y25595D01*
G01X9806Y25491D01*
G01X9964Y25440D01*
G01X10068Y25440D01*
G01X10223Y25491D01*
G01X10327Y25595D01*
G01X10378Y25753D01*
G01X10378Y26530D01*
G01X10721Y26324D02*
G01X10825Y26375D01*
G01X10982Y26530D01*
G01X10982Y25440D01*
G01X12052Y26530D02*
G01X11531Y25440D01*
G01X11325Y26530D02*
G01X12052Y26530D01*
G01X38354Y21958D02*
G01X38354Y21181D01*
G01X38404Y21023D01*
G01X38508Y20919D01*
G01X38666Y20868D01*
G01X38770Y20868D01*
G01X38925Y20919D01*
G01X39029Y21023D01*
G01X39080Y21181D01*
G01X39080Y21958D01*
G01X39476Y21699D02*
G01X39476Y21752D01*
G01X39527Y21856D01*
G01X39580Y21907D01*
G01X39684Y21958D01*
G01X39890Y21958D01*
G01X39994Y21907D01*
G01X40048Y21856D01*
G01X40098Y21752D01*
G01X40098Y21648D01*
G01X40048Y21544D01*
G01X39944Y21386D01*
G01X39423Y20868D01*
G01X40152Y20868D01*
G01X40805Y21958D02*
G01X40650Y21907D01*
G01X40546Y21752D01*
G01X40495Y21490D01*
G01X40495Y21336D01*
G01X40546Y21076D01*
G01X40650Y20919D01*
G01X40805Y20868D01*
G01X40909Y20868D01*
G01X41066Y20919D01*
G01X41170Y21076D01*
G01X41221Y21336D01*
G01X41221Y21490D01*
G01X41170Y21752D01*
G01X41066Y21907D01*
G01X40909Y21958D01*
G01X40805Y21958D01*
G54D27*
G75*
G01X46825Y14191D02*
G3X46848Y14191I11J-1360D01*
G01*
G75*
G01X46784Y14719D02*
G3X46817Y14719I17J-1887D01*
G01*
G75*
G01X57239Y14191D02*
G3X57262Y14191I11J-1360D01*
G01*
G75*
G01X57198Y14719D02*
G3X57231Y14719I17J-1887D01*
G01*
G54D25*
G75*
G01X84391Y22225D02*
G2X83082Y18026I-2095J-1651D01*
G01*
G75*
G01X81510Y18026D02*
G2X80202Y22225I786J2548D01*
G01*
G75*
G01X82931Y18034D02*
G2X81661Y18034I-635J2857D01*
G01*
G75*
G01X81661Y18034D02*
G2X80391Y18669I635J2857D01*
G01*
G75*
G01X84201Y18669D02*
G2X81661Y18034I-1905J2222D01*
G01*
G75*
G01X84391Y19685D02*
G2X83082Y15486I-2095J-1651D01*
G01*
G75*
G01X81510Y15486D02*
G2X80202Y19685I786J2548D01*
G01*
G75*
G01X82931Y15494D02*
G2X81661Y15494I-635J2857D01*
G01*
G75*
G01X81661Y15494D02*
G2X80391Y16129I635J2857D01*
G01*
G75*
G01X84201Y16129D02*
G2X81661Y15494I-1905J2222D01*
G01*
G75*
G01X84391Y17145D02*
G2X83082Y12946I-2095J-1651D01*
G01*
G75*
G01X81510Y12946D02*
G2X80202Y17145I786J2548D01*
G01*
G75*
G01X82931Y12954D02*
G2X81661Y12954I-635J2857D01*
G01*
G75*
G01X81661Y12954D02*
G2X80391Y13589I635J2857D01*
G01*
G75*
G01X84201Y13589D02*
G2X81661Y12954I-1905J2222D01*
G01*
G75*
G01X84391Y14605D02*
G2X83082Y10406I-2095J-1651D01*
G01*
G75*
G01X81510Y10406D02*
G2X80202Y14605I786J2548D01*
G01*
G75*
G01X82931Y10414D02*
G2X81661Y10414I-635J2857D01*
G01*
G75*
G01X81661Y10414D02*
G2X80391Y11049I635J2857D01*
G01*
G75*
G01X84201Y11049D02*
G2X81661Y10414I-1905J2222D01*
G01*
G75*
G01X84391Y12065D02*
G2X83082Y7866I-2095J-1651D01*
G01*
G75*
G01X81510Y7866D02*
G2X80202Y12065I786J2548D01*
G01*
G75*
G01X82931Y7874D02*
G2X81661Y7874I-635J2857D01*
G01*
G75*
G01X81661Y7874D02*
G2X80391Y8509I635J2857D01*
G01*
G75*
G01X84201Y8509D02*
G2X81661Y7874I-1905J2222D01*
G01*
G75*
G01X84391Y9525D02*
G2X83082Y5326I-2095J-1651D01*
G01*
G75*
G01X81510Y5326D02*
G2X80202Y9525I786J2548D01*
G01*
G75*
G01X82931Y5334D02*
G2X81661Y5334I-635J2857D01*
G01*
G75*
G01X81661Y5334D02*
G2X80391Y5969I635J2857D01*
G01*
G75*
G01X84201Y5969D02*
G2X81661Y5334I-1905J2222D01*
G01*
G75*
G01X6677Y1412D02*
G3X6877Y1162I237J-15D01*
G01*
G75*
G01X12427Y1162D02*
G3X12677Y1362I15J238D01*
G01*
G75*
G01X54569Y17018D02*
G03X54569Y17018I-2499J0D01*
G01*

%LPD*%
G36*
G01X52578Y14478D02*
G01X53594Y14986D01*
G01X50800Y14986D01*
G01X51054Y14732D01*
G01X51562Y14478D01*
G01X52578Y14478D01*
G37*
M00*
M02*
